#define arrow_width 16
#define arrow_height 16
static unsigned char arrow_bits[] = {
   0xff, 0x00, 0x05, 0x00, 0x07, 0x00, 0x09, 0x00, 0x11, 0x00, 0x21, 0x00,
   0x41, 0x00, 0x81, 0x00, 0x00, 0x01, 0x00, 0x02, 0x00, 0x04, 0x00, 0x08,
   0x00, 0x10, 0x00, 0x20, 0x00, 0x40, 0x00, 0x80};
