#define 17by17_width 17
#define 17by17_height 17
static unsigned char 17by17_bits[] = {
   0x01, 0x01, 0x01, 0x02, 0xc1, 0x01, 0x06, 0x31, 0x00, 0x8c, 0x19, 0x00,
   0x98, 0x08, 0x00, 0xb0, 0x04, 0x00, 0xe0, 0x07, 0x00, 0xe0, 0x0f, 0x00,
   0xe3, 0x1f, 0x00, 0xfe, 0xff, 0x01, 0xe0, 0x0f, 0x00, 0xf0, 0x0f, 0x00,
   0x98, 0x10, 0x00, 0x8c, 0x21, 0x00, 0x84, 0xc1, 0x00, 0x86, 0x81, 0x00,
   0x83, 0x80, 0x01};
