#define dollar64_width 64
#define dollar64_height 64
static unsigned char dollar64_bits[] = {
   0x00, 0x00, 0x00, 0x30, 0x06, 0x00, 0x00, 0x00, 0x00, 0x00, 0x00, 0x30,
   0x06, 0x00, 0x00, 0x00, 0x00, 0x00, 0x00, 0x30, 0x06, 0x00, 0x00, 0x00,
   0x00, 0x00, 0x00, 0x30, 0x06, 0x00, 0x00, 0x00, 0x00, 0x00, 0x00, 0x30,
   0x06, 0x00, 0x00, 0x00, 0x00, 0x00, 0x00, 0xfe, 0x7f, 0x00, 0x00, 0x00,
   0x00, 0x00, 0xc0, 0x3f, 0xf6, 0x0f, 0x00, 0x00, 0x00, 0x00, 0xf0, 0x31,
   0x86, 0x3f, 0x00, 0x00, 0x00, 0x00, 0x7c, 0x30, 0x06, 0xf6, 0x00, 0x00,
   0x00, 0x00, 0x36, 0x30, 0x06, 0xe4, 0x01, 0x00, 0x00, 0x00, 0x3b, 0x30,
   0x06, 0x8c, 0x03, 0x00, 0x00, 0x80, 0x19, 0x30, 0x06, 0x8c, 0x07, 0x00,
   0x00, 0xc0, 0x1c, 0x30, 0x06, 0x08, 0x07, 0x00, 0x00, 0x40, 0x1e, 0x30,
   0x06, 0x18, 0x0f, 0x00, 0x00, 0x60, 0x1e, 0x30, 0x06, 0x18, 0x0e, 0x00,
   0x00, 0x70, 0x1e, 0x30, 0x06, 0x18, 0x0e, 0x00, 0x00, 0x30, 0x1e, 0x30,
   0x06, 0x30, 0x0f, 0x00, 0x00, 0x38, 0x1e, 0x30, 0x06, 0xf0, 0x07, 0x00,
   0x00, 0x38, 0x3c, 0x30, 0x06, 0xc0, 0x01, 0x00, 0x00, 0x30, 0x7c, 0x30,
   0x06, 0x00, 0x00, 0x00, 0x00, 0x70, 0xf8, 0x30, 0x06, 0x00, 0x00, 0x00,
   0x00, 0x60, 0xf0, 0x33, 0x06, 0x00, 0x00, 0x00, 0x00, 0x60, 0xe0, 0x3f,
   0x06, 0x00, 0x00, 0x00, 0x00, 0xc0, 0x80, 0x3f, 0x06, 0x00, 0x00, 0x00,
   0x00, 0x80, 0x01, 0xff, 0x06, 0x00, 0x00, 0x00, 0x00, 0x00, 0x03, 0xfc,
   0x07, 0x00, 0x00, 0x00, 0x00, 0x00, 0x0e, 0xf0, 0x3f, 0x00, 0x00, 0x00,
   0x00, 0x00, 0x3c, 0x80, 0xff, 0x00, 0x00, 0x00, 0x00, 0x00, 0x70, 0x00,
   0xfe, 0x03, 0x00, 0x00, 0x00, 0x00, 0xc0, 0x03, 0xf0, 0x0f, 0x00, 0x00,
   0x00, 0x00, 0x00, 0x0f, 0xc0, 0x3f, 0x00, 0x00, 0x00, 0x00, 0x00, 0x3c,
   0x00, 0xff, 0x00, 0x00, 0x00, 0x00, 0x00, 0xf0, 0x00, 0xfc, 0x01, 0x00,
   0x00, 0x00, 0x00, 0xb0, 0x07, 0xf0, 0x03, 0x00, 0x00, 0x00, 0x00, 0x30,
   0x1e, 0xc0, 0x07, 0x00, 0x00, 0x00, 0x00, 0x30, 0x76, 0x80, 0x0f, 0x00,
   0x00, 0x00, 0x00, 0x30, 0xc6, 0x00, 0x1f, 0x00, 0x00, 0x00, 0x00, 0x30,
   0x86, 0x03, 0x1e, 0x00, 0x00, 0x00, 0x00, 0x30, 0x06, 0x06, 0x3e, 0x00,
   0x00, 0x00, 0x00, 0x30, 0x06, 0x0c, 0x3c, 0x00, 0x00, 0x00, 0x00, 0x30,
   0x06, 0x18, 0x3c, 0x00, 0x00, 0x00, 0x00, 0x30, 0x06, 0x30, 0x7c, 0x00,
   0x00, 0x00, 0x00, 0x30, 0x06, 0x30, 0x7c, 0x00, 0x00, 0xe0, 0x00, 0x30,
   0x06, 0x60, 0x7c, 0x00, 0x00, 0xf8, 0x03, 0x30, 0x06, 0x60, 0x3c, 0x00,
   0x00, 0xcc, 0x07, 0x30, 0x06, 0x60, 0x3c, 0x00, 0x00, 0x84, 0x07, 0x30,
   0x06, 0x60, 0x3c, 0x00, 0x00, 0x86, 0x07, 0x30, 0x06, 0x60, 0x1e, 0x00,
   0x00, 0x86, 0x07, 0x30, 0x06, 0x60, 0x1e, 0x00, 0x00, 0x84, 0x07, 0x30,
   0x06, 0x30, 0x0f, 0x00, 0x00, 0x8c, 0x07, 0x30, 0x06, 0xb0, 0x07, 0x00,
   0x00, 0x88, 0x07, 0x30, 0x06, 0xd8, 0x03, 0x00, 0x00, 0x10, 0x0f, 0x30,
   0x06, 0xec, 0x01, 0x00, 0x00, 0x60, 0x1e, 0x30, 0x06, 0xfa, 0x00, 0x00,
   0x00, 0x80, 0x7d, 0x30, 0x86, 0x3f, 0x00, 0x00, 0x00, 0x00, 0xfe, 0x33,
   0xf6, 0x0f, 0x00, 0x00, 0x00, 0x00, 0xf0, 0xff, 0xff, 0x03, 0x00, 0x00,
   0x00, 0x00, 0x00, 0xfc, 0x1f, 0x00, 0x00, 0x00, 0x00, 0x00, 0x00, 0x30,
   0x06, 0x00, 0x00, 0x00, 0x00, 0x00, 0x00, 0x30, 0x06, 0x00, 0x00, 0x00,
   0x00, 0x00, 0x00, 0x30, 0x06, 0x00, 0x00, 0x00, 0x00, 0x00, 0x00, 0x30,
   0x06, 0x00, 0x00, 0x00, 0x00, 0x00, 0x00, 0x30, 0x06, 0x00, 0x00, 0x00,
   0x00, 0x00, 0x00, 0x00, 0x00, 0x00, 0x00, 0x00 };
