#define martini64_width 64
#define martini64_height 64
static unsigned char martini64_bits[] = {
   0xf0, 0xff, 0xff, 0xff, 0xff, 0xff, 0xff, 0x0f, 0xe0, 0xff, 0xff, 0xff,
   0xff, 0xff, 0xff, 0x07, 0xc0, 0x07, 0x00, 0x00, 0x00, 0x00, 0xe0, 0x03,
   0x80, 0x0f, 0x00, 0x00, 0x7e, 0x00, 0xf0, 0x01, 0x00, 0x1f, 0x00, 0x80,
   0xff, 0x01, 0xf8, 0x00, 0x00, 0x3e, 0x00, 0xe0, 0xff, 0x03, 0x7c, 0x00,
   0x00, 0x7c, 0x00, 0xf0, 0x07, 0x03, 0x3e, 0x00, 0x00, 0xf8, 0x00, 0xf8,
   0x03, 0x02, 0x1f, 0x00, 0x00, 0xf0, 0x01, 0xfc, 0x03, 0x86, 0x0f, 0x00,
   0x00, 0xe0, 0x03, 0xfc, 0x01, 0xc6, 0x07, 0x00, 0x00, 0xc0, 0x07, 0xfe,
   0x03, 0xe6, 0x03, 0x00, 0x00, 0x80, 0x0f, 0xfe, 0x03, 0xf3, 0x01, 0x00,
   0x00, 0x00, 0x1f, 0xff, 0x87, 0xfb, 0x00, 0x00, 0x00, 0x00, 0x3e, 0xff,
   0xff, 0x7d, 0x00, 0x00, 0x00, 0x00, 0x7c, 0xff, 0xff, 0x3f, 0x00, 0x00,
   0x00, 0x00, 0xf8, 0xff, 0xff, 0x1f, 0x00, 0x00, 0x00, 0x00, 0xf0, 0xff,
   0xff, 0x0f, 0x00, 0x00, 0x00, 0x00, 0xe0, 0xff, 0xff, 0x07, 0x00, 0x00,
   0x00, 0x00, 0xc0, 0xff, 0xff, 0x03, 0x00, 0x00, 0x00, 0x00, 0x80, 0xff,
   0xf7, 0x01, 0x00, 0x00, 0x00, 0x00, 0x00, 0x1f, 0xf8, 0x00, 0x00, 0x00,
   0x00, 0x00, 0x00, 0x3e, 0x7c, 0x00, 0x00, 0x00, 0x00, 0x00, 0x00, 0x7c,
   0x3e, 0x00, 0x00, 0x00, 0x00, 0x00, 0x00, 0xf8, 0x1f, 0x00, 0x00, 0x00,
   0x00, 0x00, 0x00, 0xf0, 0x0f, 0x00, 0x00, 0x00, 0x00, 0x00, 0x00, 0xe0,
   0x07, 0x00, 0x00, 0x00, 0x00, 0x00, 0x00, 0xc0, 0x03, 0x00, 0x00, 0x00,
   0x00, 0x00, 0x00, 0xc0, 0x03, 0x00, 0x00, 0x00, 0x00, 0x00, 0x00, 0xc0,
   0x03, 0x00, 0x00, 0x00, 0x00, 0x00, 0x00, 0xc0, 0x03, 0x00, 0x00, 0x00,
   0x00, 0x00, 0x00, 0xc0, 0x03, 0x00, 0x00, 0x00, 0x00, 0x00, 0x00, 0xc0,
   0x03, 0x00, 0x00, 0x00, 0x00, 0x00, 0x00, 0xc0, 0x03, 0x00, 0x00, 0x00,
   0x00, 0x00, 0x00, 0xc0, 0x03, 0x00, 0x00, 0x00, 0x00, 0x00, 0x00, 0xc0,
   0x03, 0x00, 0x00, 0x00, 0x00, 0x00, 0x00, 0xc0, 0x03, 0x00, 0x00, 0x00,
   0x00, 0x00, 0x00, 0xc0, 0x03, 0x00, 0x00, 0x00, 0x00, 0x00, 0x00, 0xc0,
   0x03, 0x00, 0x00, 0x00, 0x00, 0x00, 0x00, 0xc0, 0x03, 0x00, 0x00, 0x00,
   0x00, 0x00, 0x00, 0xc0, 0x03, 0x00, 0x00, 0x00, 0x00, 0x00, 0x00, 0xc0,
   0x03, 0x00, 0x00, 0x00, 0x00, 0x00, 0x00, 0xc0, 0x03, 0x00, 0x00, 0x00,
   0x00, 0x00, 0x00, 0xc0, 0x03, 0x00, 0x00, 0x00, 0x00, 0x00, 0x00, 0xc0,
   0x03, 0x00, 0x00, 0x00, 0x00, 0x00, 0x00, 0xc0, 0x03, 0x00, 0x00, 0x00,
   0x00, 0x00, 0x00, 0xc0, 0x03, 0x00, 0x00, 0x00, 0x00, 0x00, 0x00, 0xc0,
   0x03, 0x00, 0x00, 0x00, 0x00, 0x00, 0x00, 0xc0, 0x03, 0x00, 0x00, 0x00,
   0x00, 0x00, 0x00, 0xc0, 0x03, 0x00, 0x00, 0x00, 0x00, 0x00, 0x00, 0xc0,
   0x03, 0x00, 0x00, 0x00, 0x00, 0x00, 0x00, 0xc0, 0x03, 0x00, 0x00, 0x00,
   0x00, 0x00, 0x00, 0xc0, 0x03, 0x00, 0x00, 0x00, 0x00, 0x00, 0x00, 0xc0,
   0x03, 0x00, 0x00, 0x00, 0x00, 0x00, 0x00, 0xc0, 0x03, 0x00, 0x00, 0x00,
   0x00, 0x00, 0x00, 0xc0, 0x03, 0x00, 0x00, 0x00, 0x00, 0x00, 0x00, 0xc0,
   0x03, 0x00, 0x00, 0x00, 0x00, 0x00, 0x00, 0xc0, 0x03, 0x00, 0x00, 0x00,
   0x00, 0x00, 0x00, 0xc0, 0x03, 0x00, 0x00, 0x00, 0x00, 0x00, 0x00, 0xc0,
   0x03, 0x00, 0x00, 0x00, 0x00, 0x00, 0x00, 0xc0, 0x03, 0x00, 0x00, 0x00,
   0x00, 0x00, 0x00, 0xc0, 0x03, 0x00, 0x00, 0x00, 0x00, 0x00, 0xff, 0xff,
   0xff, 0xff, 0x00, 0x00, 0x00, 0x00, 0xff, 0xff, 0xff, 0xff, 0x00, 0x00,
   0x00, 0x00, 0xff, 0xff, 0xff, 0xff, 0x00, 0x00 };
